HIERARCHY
ROOT Hips
{
	OFFSET 0 93.02 0
	CHANNELS 6 Xposition Yposition Zposition Yrotation Xrotation Zrotation 
	JOINT RightUpLeg
	{
		OFFSET -9.25 -1.59 0
		CHANNELS 6 Xposition Yposition Zposition Yrotation Xrotation Zrotation 
		JOINT RightLeg
		{
			OFFSET 0 -41.87 0
			CHANNELS 6 Xposition Yposition Zposition Yrotation Xrotation Zrotation 
			JOINT RightFoot
			{
				OFFSET 0 -41.87 0
				CHANNELS 6 Xposition Yposition Zposition Yrotation Xrotation Zrotation 
				End Site
				{
					OFFSET 0 -7.69 17.5
				}
			}
		}
	}
	JOINT LeftUpLeg
	{
		OFFSET 9.25 -1.59 0
		CHANNELS 6 Xposition Yposition Zposition Yrotation Xrotation Zrotation 
		JOINT LeftLeg
		{
			OFFSET 0 -41.87 0
			CHANNELS 6 Xposition Yposition Zposition Yrotation Xrotation Zrotation 
			JOINT LeftFoot
			{
				OFFSET 0 -41.87 0
				CHANNELS 6 Xposition Yposition Zposition Yrotation Xrotation Zrotation 
				End Site
				{
					OFFSET 0 -7.69 17.5
				}
			}
		}
	}
	JOINT Spine
	{
		OFFSET 0 14.307 0
		CHANNELS 6 Xposition Yposition Zposition Yrotation Xrotation Zrotation 
		JOINT Spine1
		{
			OFFSET 0 9.718 0
			CHANNELS 6 Xposition Yposition Zposition Yrotation Xrotation Zrotation 
			JOINT Spine2
			{
				OFFSET 0 10.12 0
				CHANNELS 6 Xposition Yposition Zposition Yrotation Xrotation Zrotation 
				JOINT Spine3
				{
					OFFSET 0 9.718 0
					CHANNELS 6 Xposition Yposition Zposition Yrotation Xrotation Zrotation 
					JOINT Neck
					{
						OFFSET 0 10.387 0
						CHANNELS 6 Xposition Yposition Zposition Yrotation Xrotation Zrotation 
						JOINT Head
						{
							OFFSET 0 9.47 0
							CHANNELS 6 Xposition Yposition Zposition Yrotation Xrotation Zrotation 
							End Site
							{
								OFFSET 0 15.95 0
							}
						}
					}
					JOINT RightShoulder
					{
						OFFSET -3.2 6.925 0
						CHANNELS 6 Xposition Yposition Zposition Yrotation Xrotation Zrotation 
						JOINT RightArm
						{
							OFFSET -12.8 0 0
							CHANNELS 6 Xposition Yposition Zposition Yrotation Xrotation Zrotation 
							JOINT RightForeArm
							{
								OFFSET -26.5 0 0
								CHANNELS 6 Xposition Yposition Zposition Yrotation Xrotation Zrotation 
								JOINT RightHand
								{
									OFFSET -26 0 0
									CHANNELS 6 Xposition Yposition Zposition Yrotation Xrotation Zrotation 
									JOINT RightHandThumb1
									{
										OFFSET -2.489 0.19 3.121
										CHANNELS 6 Xposition Yposition Zposition Yrotation Xrotation Zrotation 
										JOINT RightHandThumb2
										{
											OFFSET -3.683 0 0
											CHANNELS 6 Xposition Yposition Zposition Yrotation Xrotation Zrotation 
											JOINT RightHandThumb3
											{
												OFFSET -2.558 0 0
												CHANNELS 6 Xposition Yposition Zposition Yrotation Xrotation Zrotation 
												End Site
												{
													OFFSET -2.194 0 0
												}
											}
										}
									}
									JOINT RightInHandIndex
									{
										OFFSET -3.224 0.508 1.978
										CHANNELS 6 Xposition Yposition Zposition Yrotation Xrotation Zrotation 
										JOINT RightHandIndex1
										{
											OFFSET -5.217 -0.091 0.999
											CHANNELS 6 Xposition Yposition Zposition Yrotation Xrotation Zrotation 
											JOINT RightHandIndex2
											{
												OFFSET -3.619 0 0
												CHANNELS 6 Xposition Yposition Zposition Yrotation Xrotation Zrotation 
												JOINT RightHandIndex3
												{
													OFFSET -2.052 0 0
													CHANNELS 6 Xposition Yposition Zposition Yrotation Xrotation Zrotation 
													End Site
													{
														OFFSET -1.805 0 0
													}
												}
											}
										}
									}
									JOINT RightInHandMiddle
									{
										OFFSET -3.382 0.517 0.757
										CHANNELS 6 Xposition Yposition Zposition Yrotation Xrotation Zrotation 
										JOINT RightHandMiddle1
										{
											OFFSET -5.174 -0.084 0.314
											CHANNELS 6 Xposition Yposition Zposition Yrotation Xrotation Zrotation 
											JOINT RightHandMiddle2
											{
												OFFSET -3.949 0 0
												CHANNELS 6 Xposition Yposition Zposition Yrotation Xrotation Zrotation 
												JOINT RightHandMiddle3
												{
													OFFSET -2.476 0 0
													CHANNELS 6 Xposition Yposition Zposition Yrotation Xrotation Zrotation 
													End Site
													{
														OFFSET -1.975 0 0
													}
												}
											}
										}
									}
									JOINT RightInHandRing
									{
										OFFSET -3.365 0.538 -0.129
										CHANNELS 6 Xposition Yposition Zposition Yrotation Xrotation Zrotation 
										JOINT RightHandRing1
										{
											OFFSET -4.635 -0.022 -0.479
											CHANNELS 6 Xposition Yposition Zposition Yrotation Xrotation Zrotation 
											JOINT RightHandRing2
											{
												OFFSET -3.442 0 0
												CHANNELS 6 Xposition Yposition Zposition Yrotation Xrotation Zrotation 
												JOINT RightHandRing3
												{
													OFFSET -2.388 0 0
													CHANNELS 6 Xposition Yposition Zposition Yrotation Xrotation Zrotation 
													End Site
													{
														OFFSET -1.857 0 0
													}
												}
											}
										}
									}
									JOINT RightInHandPinky
									{
										OFFSET -3.161 0.469 -1.202
										CHANNELS 6 Xposition Yposition Zposition Yrotation Xrotation Zrotation 
										JOINT RightHandPinky1
										{
											OFFSET -4.141 -0.022 -1.091
											CHANNELS 6 Xposition Yposition Zposition Yrotation Xrotation Zrotation 
											JOINT RightHandPinky2
											{
												OFFSET -2.757 0 0
												CHANNELS 6 Xposition Yposition Zposition Yrotation Xrotation Zrotation 
												JOINT RightHandPinky3
												{
													OFFSET -1.742 0 0
													CHANNELS 6 Xposition Yposition Zposition Yrotation Xrotation Zrotation 
													End Site
													{
														OFFSET -1.645 0 0
													}
												}
											}
										}
									}
								}
							}
						}
					}
					JOINT LeftShoulder
					{
						OFFSET 3.2 6.925 0
						CHANNELS 6 Xposition Yposition Zposition Yrotation Xrotation Zrotation 
						JOINT LeftArm
						{
							OFFSET 12.8 0 0
							CHANNELS 6 Xposition Yposition Zposition Yrotation Xrotation Zrotation 
							JOINT LeftForeArm
							{
								OFFSET 26.5 0 0
								CHANNELS 6 Xposition Yposition Zposition Yrotation Xrotation Zrotation 
								JOINT LeftHand
								{
									OFFSET 26 0 0
									CHANNELS 6 Xposition Yposition Zposition Yrotation Xrotation Zrotation 
									JOINT LeftHandThumb1
									{
										OFFSET 2.489 0.19 3.121
										CHANNELS 6 Xposition Yposition Zposition Yrotation Xrotation Zrotation 
										JOINT LeftHandThumb2
										{
											OFFSET 3.683 0 0
											CHANNELS 6 Xposition Yposition Zposition Yrotation Xrotation Zrotation 
											JOINT LeftHandThumb3
											{
												OFFSET 2.558 0 0
												CHANNELS 6 Xposition Yposition Zposition Yrotation Xrotation Zrotation 
												End Site
												{
													OFFSET 2.194 0 0
												}
											}
										}
									}
									JOINT LeftInHandIndex
									{
										OFFSET 3.224 0.508 1.978
										CHANNELS 6 Xposition Yposition Zposition Yrotation Xrotation Zrotation 
										JOINT LeftHandIndex1
										{
											OFFSET 5.217 -0.091 0.999
											CHANNELS 6 Xposition Yposition Zposition Yrotation Xrotation Zrotation 
											JOINT LeftHandIndex2
											{
												OFFSET 3.619 0 0
												CHANNELS 6 Xposition Yposition Zposition Yrotation Xrotation Zrotation 
												JOINT LeftHandIndex3
												{
													OFFSET 2.052 0 0
													CHANNELS 6 Xposition Yposition Zposition Yrotation Xrotation Zrotation 
													End Site
													{
														OFFSET 1.805 0 0
													}
												}
											}
										}
									}
									JOINT LeftInHandMiddle
									{
										OFFSET 3.382 0.517 0.757
										CHANNELS 6 Xposition Yposition Zposition Yrotation Xrotation Zrotation 
										JOINT LeftHandMiddle1
										{
											OFFSET 5.174 -0.084 0.314
											CHANNELS 6 Xposition Yposition Zposition Yrotation Xrotation Zrotation 
											JOINT LeftHandMiddle2
											{
												OFFSET 3.949 0 0
												CHANNELS 6 Xposition Yposition Zposition Yrotation Xrotation Zrotation 
												JOINT LeftHandMiddle3
												{
													OFFSET 2.476 0 0
													CHANNELS 6 Xposition Yposition Zposition Yrotation Xrotation Zrotation 
													End Site
													{
														OFFSET 1.975 0 0
													}
												}
											}
										}
									}
									JOINT LeftInHandRing
									{
										OFFSET 3.365 0.538 -0.129
										CHANNELS 6 Xposition Yposition Zposition Yrotation Xrotation Zrotation 
										JOINT LeftHandRing1
										{
											OFFSET 4.635 -0.022 -0.479
											CHANNELS 6 Xposition Yposition Zposition Yrotation Xrotation Zrotation 
											JOINT LeftHandRing2
											{
												OFFSET 3.442 0 0
												CHANNELS 6 Xposition Yposition Zposition Yrotation Xrotation Zrotation 
												JOINT LeftHandRing3
												{
													OFFSET 2.388 0 0
													CHANNELS 6 Xposition Yposition Zposition Yrotation Xrotation Zrotation 
													End Site
													{
														OFFSET 1.857 0 0
													}
												}
											}
										}
									}
									JOINT LeftInHandPinky
									{
										OFFSET 3.161 0.469 -1.202
										CHANNELS 6 Xposition Yposition Zposition Yrotation Xrotation Zrotation 
										JOINT LeftHandPinky1
										{
											OFFSET 4.141 -0.022 -1.091
											CHANNELS 6 Xposition Yposition Zposition Yrotation Xrotation Zrotation 
											JOINT LeftHandPinky2
											{
												OFFSET 2.757 0 0
												CHANNELS 6 Xposition Yposition Zposition Yrotation Xrotation Zrotation 
												JOINT LeftHandPinky3
												{
													OFFSET 1.742 0 0
													CHANNELS 6 Xposition Yposition Zposition Yrotation Xrotation Zrotation 
													End Site
													{
														OFFSET 1.645 0 0
													}
												}
											}
										}
									}
								}
							}
						}
					}
				}
			}
		}
	}
}
MOTION
Frames: 5
Frame Time: 0.008
0 93.02 0 0 0 0 -9.25 -1.59 0 0 0 0 0 -41.87 0 0 0 0 0 -41.87 0 0 0 0 9.25 -1.59 0 0 0 0 0 -41.87 0 0 0 0 0 -41.87 0 0 0 0 0 14.307 0 0 0 0 0 9.718 0 0 0 0 0 10.12 0 0 0 0 0 9.718 0 0 0 0 0 10.387 0 0 0 0 0 9.47 0 0 0 0 -3.2 6.925 0 0 0 0 -12.8 0 0 0 0 0 -26.5 0 0 0 0 0 -26 0 0 0 0 0 -2.489 0.19 3.121 0 0 0 -3.683 0 0 0 0 0 -2.558 0 0 0 0 0 -3.224 0.508 1.978 0 0 0 -5.217 -0.091 0.999 0 0 0 -3.619 0 0 0 0 0 -2.052 0 0 0 0 0 -3.382 0.517 0.757 0 0 0 -5.174 -0.084 0.314 0 0 0 -3.949 0 0 0 0 0 -2.476 0 0 0 0 0 -3.365 0.538 -0.129 0 0 0 -4.635 -0.022 -0.479 0 0 0 -3.442 0 0 0 0 0 -2.388 0 0 0 0 0 -3.161 0.469 -1.202 0 0 0 -4.141 -0.022 -1.091 0 0 0 -2.757 0 0 0 0 0 -1.742 0 0 0 0 0 3.2 6.925 0 0 0 0 12.8 0 0 0 0 0 26.5 0 0 0 0 0 26 0 0 0 0 0 2.489 0.19 3.121 0 0 0 3.683 0 0 0 0 0 2.558 0 0 0 0 0 3.224 0.508 1.978 0 0 0 5.217 -0.091 0.999 0 0 0 3.619 0 0 0 0 0 2.052 0 0 0 0 0 3.382 0.517 0.757 0 0 0 5.174 -0.084 0.314 0 0 0 3.949 0 0 0 0 0 2.476 0 0 0 0 0 3.365 0.538 -0.129 0 0 0 4.635 -0.022 -0.479 0 0 0 3.442 0 0 0 0 0 2.388 0 0 0 0 0 3.161 0.469 -1.202 0 0 0 4.141 -0.022 -1.091 0 0 0 2.757 0 0 0 0 0 1.742 0 0 0 0 0 
7.43714 90.6417 -17.4793 159.194 5.3434 -0.715553 -9.21743 -1.58302 0.0517114 -14.5106 -18.9381 -12.3553 0.0992284 -41.863 0.067589 5.29153 30.9056 3.87347 1.47938 -40.1462 -1.03064 -0.000221296 -2.39314 0.0196201 9.3255 -1.57152 0.0195415 10.7477 -34.4661 4.65645 0.118355 -41.8882 0.0533971 -2.62466 29.3099 4.56707 0.71042 -43.626 0.322361 0.000595377 -2.39484 -0.00261892 -0.0250401 14.3058 -0.00429284 2.08716 8.98204 9.37603 -0.0102047 9.71474 -0.00208103 0.616488 2.23596 2.31486 0.00773088 10.1211 0.0308664 1.26091 3.58277 3.83314 0.00385631 9.71862 0.0244071 -0.29443 -0.0494982 -0.241709 -0.00222331 10.3906 0.00717333 -0.294668 -0.0505782 -0.241841 -0.0776488 9.46677 0.00953861 -5.21702 -1.31939 -4.3079 -3.18354 6.90576 0.0255833 5.20124 1.23712 -0.469535 -12.7166 -0.12103 -0.11249 12.8671 -48.5526 69.5346 -26.6494 -0.0285667 -0.121579 70.6701 17.1103 -5.30725 -25.9681 -0.0519245 -0.091788 -11.6707 -18.6742 -0.866059 -2.48905 0.190105 3.12053 21.86 -0 30 -3.68274 0 0 -10 -0 0 -2.55832 0 0 -10 -0 0 -3.22368 0.508421 1.97842 0 -0 0 -5.21684 -0.0913684 0.999158 2.55 -0 20 -3.61937 0 0 0 -0 24 -2.05211 0 0 0 -0 20 -3.38211 0.517263 0.756737 0 -0 0 -5.1741 -0.084 0.313895 0 -0 20 -3.94947 0 0 0 -0 24 -2.47579 0 0 0 -0 20 -3.36516 0.537895 -0.128947 0 -0 0 -4.63474 -0.0221053 -0.478947 -3 -0 20 -3.44238 0 0 0 -0 24 -2.38811 0 0 0 -0 20 -3.16105 0.469368 -1.20179 0 -0 0 -4.14105 -0.0221053 -1.09053 -8.83 -0 20 -2.75653 0 0 0 -0 24 -1.74189 0 0 0 -0 20 3.22149 6.94726 -0.0116793 -3.25879 0.780883 -8.40987 12.8948 -0.00793143 -0.102213 -32.3699 -14.0099 -81.8776 26.5481 0.103857 -0.189217 -36.0441 13.8482 -2.34038 25.9671 0.0655994 -0.151147 8.98146 -1.21738 1.40943 2.48905 0.190105 3.12053 -21.86 -0 -30 3.68274 0 0 10 -0 0 2.55832 0 0 10 -0 0 3.22368 0.508421 1.97842 0 -0 0 5.21684 -0.0913684 0.999158 -2.55 -0 -20 3.61937 0 0 0 -0 -24 2.05211 0 0 0 -0 -20 3.38211 0.517263 0.756737 0 -0 0 5.1741 -0.084 0.313895 0 -0 -20 3.94947 0 0 0 -0 -24 2.47579 0 0 0 -0 -20 3.36516 0.537895 -0.128947 0 -0 0 4.63474 -0.0221053 -0.478947 3 -0 -20 3.44238 0 0 0 -0 -24 2.38811 0 0 0 -0 -20 3.16105 0.469368 -1.20179 0 -0 0 4.14105 -0.0221053 -1.09053 8.83 -0 -20 2.75653 0 0 0 -0 -24 1.74189 0 0 0 -0 -20 
7.4472 90.6373 -17.462 159.252 5.35744 -0.744872 -9.21738 -1.58533 0.0427789 -14.5204 -18.9991 -12.3029 0.093682 -41.8642 0.0620143 5.25161 30.9791 3.8529 1.47253 -40.1602 -1.05657 -0.00022143 -2.39314 0.0196214 9.32292 -1.56749 0.0270229 10.6676 -34.4856 4.69489 0.110273 -41.8882 0.0598589 -2.60314 29.3105 4.57832 0.730736 -43.6266 0.334825 0.000593086 -2.39483 -0.00261655 -0.0221855 14.306 -0.00385093 2.05641 8.96951 9.3985 -0.00552184 9.71396 0.00620208 0.608881 2.23325 2.32104 0.0115642 10.1213 0.0440398 1.24865 3.57902 3.84303 0.00870534 9.71857 0.0381853 -0.293573 -0.0449128 -0.243529 0.00231467 10.3903 0.0208947 -0.293835 -0.0459946 -0.243663 -0.0730908 9.46693 0.0152437 -5.20812 -1.23831 -4.34434 -3.18077 6.90744 0.0336926 5.07313 1.32894 -0.416376 -12.7184 -0.114643 -0.107192 12.3988 -48.1238 69.938 -26.641 -0.0268831 -0.108871 70.6525 17.4224 -5.13186 -25.9675 -0.0546031 -0.0811327 -11.5175 -18.5877 -0.994382 -2.48905 0.190105 3.12053 21.86 -0 30 -3.68274 0 0 -10 -0 0 -2.55832 0 0 -10 -0 0 -3.22368 0.508421 1.97842 0 -0 0 -5.21684 -0.0913684 0.999158 2.55 -0 20 -3.61937 0 0 0 -0 24 -2.05211 0 0 0 -0 20 -3.38211 0.517263 0.756737 0 -0 0 -5.1741 -0.084 0.313895 0 -0 20 -3.94947 0 0 0 -0 24 -2.47579 0 0 0 -0 20 -3.36516 0.537895 -0.128947 0 -0 0 -4.63474 -0.0221053 -0.478947 -3 -0 20 -3.44238 0 0 0 -0 24 -2.38811 0 0 0 -0 20 -3.16105 0.469368 -1.20179 0 -0 0 -4.14105 -0.0221053 -1.09053 -8.83 -0 20 -2.75653 0 0 0 -0 24 -1.74189 0 0 0 -0 20 3.22352 6.94738 -0.00295149 -3.25055 0.919173 -8.44626 12.8938 -0.00817888 -0.102906 -32.1632 -14.0032 -81.7906 26.5522 0.110243 -0.194484 -36.0581 13.8393 -2.36893 25.9681 0.0691401 -0.156804 9.00225 -1.3238 1.49599 2.48905 0.190105 3.12053 -21.86 -0 -30 3.68274 0 0 10 -0 0 2.55832 0 0 10 -0 0 3.22368 0.508421 1.97842 0 -0 0 5.21684 -0.0913684 0.999158 -2.55 -0 -20 3.61937 0 0 0 -0 -24 2.05211 0 0 0 -0 -20 3.38211 0.517263 0.756737 0 -0 0 5.1741 -0.084 0.313895 0 -0 -20 3.94947 0 0 0 -0 -24 2.47579 0 0 0 -0 -20 3.36516 0.537895 -0.128947 0 -0 0 4.63474 -0.0221053 -0.478947 3 -0 -20 3.44238 0 0 0 -0 -24 2.38811 0 0 0 -0 -20 3.16105 0.469368 -1.20179 0 -0 0 4.14105 -0.0221053 -1.09053 8.83 -0 -20 2.75653 0 0 0 -0 -24 1.74189 0 0 0 -0 -20 
7.45719 90.6316 -17.4439 159.298 5.37388 -0.771475 -9.2162 -1.5886 0.0325459 -14.488 -19.0633 -12.261 0.0932759 -41.865 0.0559334 5.1278 31.0734 3.79858 1.47273 -40.1697 -1.07549 -0.000232438 -2.39314 0.019622 9.32004 -1.56389 0.0346685 10.6029 -34.5069 4.72818 0.109254 -41.8895 0.0696406 -2.58916 29.3219 4.56597 0.762743 -43.6264 0.352564 0.00059261 -2.39483 -0.00262185 -0.0201999 14.3062 -0.00516802 2.03288 8.95637 9.4182 -0.00117748 9.71332 0.0135073 0.603053 2.23028 2.32641 0.0153679 10.1216 0.0563974 1.23922 3.57468 3.85164 0.0132851 9.71864 0.0511539 -0.292951 -0.0403991 -0.245792 0.00646874 10.3898 0.0338517 -0.293234 -0.0414826 -0.245932 -0.069302 9.46701 0.0210051 -5.20326 -1.15956 -4.38863 -3.17759 6.90935 0.0418335 4.93203 1.43085 -0.361414 -12.719 -0.10652 -0.100196 11.9433 -47.698 70.3038 -26.6311 -0.0245486 -0.0949292 70.6681 17.6262 -4.95029 -25.9669 -0.0530386 -0.0697331 -11.3796 -18.5156 -1.09509 -2.48905 0.190105 3.12053 21.86 -0 30 -3.68274 0 0 -10 -0 0 -2.55832 0 0 -10 -0 0 -3.22368 0.508421 1.97842 0 -0 0 -5.21684 -0.0913684 0.999158 2.55 -0 20 -3.61937 0 0 0 -0 24 -2.05211 0 0 0 -0 20 -3.38211 0.517263 0.756737 0 -0 0 -5.1741 -0.084 0.313895 0 -0 20 -3.94947 0 0 0 -0 24 -2.47579 0 0 0 -0 20 -3.36516 0.537895 -0.128947 0 -0 0 -4.63474 -0.0221053 -0.478947 -3 -0 20 -3.44238 0 0 0 -0 24 -2.38811 0 0 0 -0 20 -3.16105 0.469368 -1.20179 0 -0 0 -4.14105 -0.0221053 -1.09053 -8.83 -0 20 -2.75653 0 0 0 -0 24 -1.74189 0 0 0 -0 20 3.22631 6.94923 0.00603548 -3.24752 1.04721 -8.48158 12.8923 -0.00612651 -0.100816 -31.9708 -13.9862 -81.6988 26.5547 0.111727 -0.195379 -36.0544 13.6784 -2.37769 25.969 0.0685092 -0.158489 9.02116 -1.2925 1.56215 2.48905 0.190105 3.12053 -21.86 -0 -30 3.68274 0 0 10 -0 0 2.55832 0 0 10 -0 0 3.22368 0.508421 1.97842 0 -0 0 5.21684 -0.0913684 0.999158 -2.55 -0 -20 3.61937 0 0 0 -0 -24 2.05211 0 0 0 -0 -20 3.38211 0.517263 0.756737 0 -0 0 5.1741 -0.084 0.313895 0 -0 -20 3.94947 0 0 0 -0 -24 2.47579 0 0 0 -0 -20 3.36516 0.537895 -0.128947 0 -0 0 4.63474 -0.0221053 -0.478947 3 -0 -20 3.44238 0 0 0 -0 -24 2.38811 0 0 0 -0 -20 3.16105 0.469368 -1.20179 0 -0 0 4.14105 -0.0221053 -1.09053 8.83 -0 -20 2.75653 0 0 0 -0 -24 1.74189 0 0 0 -0 -20 
7.46243 90.6263 -17.4267 159.333 5.38035 -0.792524 -9.21753 -1.5889 0.0283491 -14.4114 -19.1196 -12.2377 0.0889073 -41.8648 0.0558577 4.96044 31.1706 3.74306 1.4705 -40.1884 -1.10822 -0.000223299 -2.39315 0.019624 9.32495 -1.5682 0.028293 10.6155 -34.547 4.687 0.112665 -41.8901 0.0631539 -2.59462 29.3533 4.61156 0.78863 -43.6226 0.372629 0.00059186 -2.39483 -0.00261788 -0.0176627 14.3065 -0.00720752 2.01942 9.00627 9.42027 -0.000335959 9.71374 0.0116903 0.600183 2.2431 2.32692 0.0139852 10.1217 0.0540081 1.23593 3.59563 3.85244 0.0120207 9.71866 0.0474149 -0.291507 -0.0407441 -0.247063 0.00581328 10.3893 0.0302895 -0.291788 -0.0418311 -0.247207 -0.0696654 9.46709 0.0173061 -5.17619 -1.16581 -4.41156 -3.17789 6.90995 0.041715 4.79158 1.46292 -0.300961 -12.7174 -0.0997027 -0.0927329 11.4898 -47.2905 70.6311 -26.6237 -0.023304 -0.0819707 70.7262 17.6899 -4.77255 -25.966 -0.0498379 -0.0617242 -11.2793 -18.4419 -1.15401 -2.48905 0.190105 3.12053 21.86 -0 30 -3.68274 0 0 -10 -0 0 -2.55832 0 0 -10 -0 0 -3.22368 0.508421 1.97842 0 -0 0 -5.21684 -0.0913684 0.999158 2.55 -0 20 -3.61937 0 0 0 -0 24 -2.05211 0 0 0 -0 20 -3.38211 0.517263 0.756737 0 -0 0 -5.1741 -0.084 0.313895 0 -0 20 -3.94947 0 0 0 -0 24 -2.47579 0 0 0 -0 20 -3.36516 0.537895 -0.128947 0 -0 0 -4.63474 -0.0221053 -0.478947 -3 -0 20 -3.44238 0 0 0 -0 24 -2.38811 0 0 0 -0 20 -3.16105 0.469368 -1.20179 0 -0 0 -4.14105 -0.0221053 -1.09053 -8.83 -0 20 -2.75653 0 0 0 -0 24 -1.74189 0 0 0 -0 20 3.22533 6.94925 0.00464503 -3.25068 1.06171 -8.47517 12.8928 -0.00611021 -0.10104 -31.7392 -13.9865 -81.6441 26.5579 0.115979 -0.197884 -36.0266 13.5509 -2.42171 25.9696 0.0697828 -0.161512 9.05439 -1.2605 1.62758 2.48905 0.190105 3.12053 -21.86 -0 -30 3.68274 0 0 10 -0 0 2.55832 0 0 10 -0 0 3.22368 0.508421 1.97842 0 -0 0 5.21684 -0.0913684 0.999158 -2.55 -0 -20 3.61937 0 0 0 -0 -24 2.05211 0 0 0 -0 -20 3.38211 0.517263 0.756737 0 -0 0 5.1741 -0.084 0.313895 0 -0 -20 3.94947 0 0 0 -0 -24 2.47579 0 0 0 -0 -20 3.36516 0.537895 -0.128947 0 -0 0 4.63474 -0.0221053 -0.478947 3 -0 -20 3.44238 0 0 0 -0 -24 2.38811 0 0 0 -0 -20 3.16105 0.469368 -1.20179 0 -0 0 4.14105 -0.0221053 -1.09053 8.83 -0 -20 2.75653 0 0 0 -0 -24 1.74189 0 0 0 -0 -20 
